<mxfile host="app.diagrams.net" modified="2023-12-06T01:52:01.282Z" agent="Mozilla/5.0 (Windows NT 10.0; Win64; x64) AppleWebKit/537.36 (KHTML, like Gecko) Chrome/119.0.0.0 Safari/537.36" etag="-0xyKaA09S3NHGpUfoC5" version="22.1.5" type="device">
  <diagram name="Page-1" id="7bfup5NW3yZbfNgyh2AQ">
    <mxGraphModel dx="1674" dy="784" grid="1" gridSize="10" guides="1" tooltips="1" connect="1" arrows="1" fold="1" page="1" pageScale="1" pageWidth="850" pageHeight="1100" math="0" shadow="0">
      <root>
        <mxCell id="0" />
        <mxCell id="1" parent="0" />
        <mxCell id="iimfKb9M7Q10GFGvKBhN-8" style="rounded=0;orthogonalLoop=1;jettySize=auto;html=1;exitX=0.5;exitY=1;exitDx=0;exitDy=0;entryX=0.5;entryY=0;entryDx=0;entryDy=0;strokeColor=#FFFFFF;" parent="1" source="iimfKb9M7Q10GFGvKBhN-1" target="iimfKb9M7Q10GFGvKBhN-2" edge="1">
          <mxGeometry relative="1" as="geometry" />
        </mxCell>
        <mxCell id="iimfKb9M7Q10GFGvKBhN-9" style="rounded=0;orthogonalLoop=1;jettySize=auto;html=1;exitX=0.5;exitY=1;exitDx=0;exitDy=0;entryX=0.5;entryY=0;entryDx=0;entryDy=0;strokeColor=#FFFFFF;" parent="1" source="iimfKb9M7Q10GFGvKBhN-1" target="iimfKb9M7Q10GFGvKBhN-3" edge="1">
          <mxGeometry relative="1" as="geometry" />
        </mxCell>
        <mxCell id="iimfKb9M7Q10GFGvKBhN-1" value="&lt;font color=&quot;#ffffff&quot;&gt;root&lt;/font&gt;&lt;br&gt;&lt;br&gt;&lt;font color=&quot;#1434a4&quot;&gt;3&lt;/font&gt; &lt;font color=&quot;#ff0000&quot;&gt;3&lt;/font&gt;" style="whiteSpace=wrap;html=1;aspect=fixed;fillColor=#000000;strokeColor=#FFFFFF;" parent="1" vertex="1">
          <mxGeometry x="385" y="100" width="80" height="80" as="geometry" />
        </mxCell>
        <mxCell id="iimfKb9M7Q10GFGvKBhN-12" style="rounded=0;orthogonalLoop=1;jettySize=auto;html=1;exitX=0.5;exitY=1;exitDx=0;exitDy=0;strokeColor=#FFFFFF;" parent="1" source="iimfKb9M7Q10GFGvKBhN-2" target="iimfKb9M7Q10GFGvKBhN-4" edge="1">
          <mxGeometry relative="1" as="geometry" />
        </mxCell>
        <mxCell id="iimfKb9M7Q10GFGvKBhN-13" style="rounded=0;orthogonalLoop=1;jettySize=auto;html=1;exitX=0.5;exitY=1;exitDx=0;exitDy=0;strokeColor=#FFFFFF;" parent="1" source="iimfKb9M7Q10GFGvKBhN-2" target="iimfKb9M7Q10GFGvKBhN-5" edge="1">
          <mxGeometry relative="1" as="geometry" />
        </mxCell>
        <mxCell id="iimfKb9M7Q10GFGvKBhN-2" value="&lt;font color=&quot;#ffffff&quot;&gt;C = 0&lt;br&gt;&lt;/font&gt;&lt;br&gt;&lt;font color=&quot;#1434a4&quot;&gt;1&lt;/font&gt;&amp;nbsp;&lt;font color=&quot;#ff0000&quot;&gt;2&lt;/font&gt;" style="whiteSpace=wrap;html=1;aspect=fixed;fillColor=#000000;strokeColor=#FFFFFF;" parent="1" vertex="1">
          <mxGeometry x="266" y="210" width="80" height="80" as="geometry" />
        </mxCell>
        <mxCell id="iimfKb9M7Q10GFGvKBhN-10" style="rounded=0;orthogonalLoop=1;jettySize=auto;html=1;exitX=0.5;exitY=1;exitDx=0;exitDy=0;entryX=0.5;entryY=0;entryDx=0;entryDy=0;strokeColor=#FFFFFF;" parent="1" source="iimfKb9M7Q10GFGvKBhN-3" target="iimfKb9M7Q10GFGvKBhN-6" edge="1">
          <mxGeometry relative="1" as="geometry" />
        </mxCell>
        <mxCell id="iimfKb9M7Q10GFGvKBhN-3" value="&lt;font color=&quot;#ffffff&quot;&gt;C = 1&lt;br&gt;&lt;/font&gt;&lt;br&gt;&lt;font color=&quot;#1434a4&quot;&gt;2&lt;/font&gt;&amp;nbsp;&lt;font color=&quot;#ff0000&quot;&gt;1&lt;/font&gt;" style="whiteSpace=wrap;html=1;aspect=fixed;fillColor=#000000;strokeColor=#FFFFFF;" parent="1" vertex="1">
          <mxGeometry x="503.5" y="210" width="80" height="80" as="geometry" />
        </mxCell>
        <mxCell id="iimfKb9M7Q10GFGvKBhN-4" value="&lt;font color=&quot;#ffffff&quot;&gt;B = 0&lt;br&gt;&lt;/font&gt;&lt;br&gt;&lt;font color=&quot;#1434a4&quot;&gt;1&lt;/font&gt;&amp;nbsp;&lt;font color=&quot;#ff0000&quot;&gt;0&lt;/font&gt;" style="whiteSpace=wrap;html=1;aspect=fixed;fillColor=#000000;strokeColor=#FFFFFF;" parent="1" vertex="1">
          <mxGeometry x="208" y="320" width="80" height="80" as="geometry" />
        </mxCell>
        <mxCell id="iimfKb9M7Q10GFGvKBhN-5" value="&lt;font color=&quot;#ffffff&quot;&gt;B = 1&lt;br&gt;&lt;/font&gt;&lt;br&gt;&lt;font color=&quot;#1434a4&quot;&gt;0&lt;/font&gt;&amp;nbsp;&lt;font color=&quot;#ff0000&quot;&gt;2&lt;/font&gt;" style="whiteSpace=wrap;html=1;aspect=fixed;fillColor=#000000;strokeColor=#FFFFFF;" parent="1" vertex="1">
          <mxGeometry x="323" y="320" width="80" height="80" as="geometry" />
        </mxCell>
        <mxCell id="iimfKb9M7Q10GFGvKBhN-6" value="&lt;font color=&quot;#ffffff&quot;&gt;B = 0&lt;br&gt;&lt;/font&gt;&lt;br&gt;&lt;font color=&quot;#1434a4&quot;&gt;0&lt;/font&gt;&amp;nbsp;&lt;font color=&quot;#ff0000&quot;&gt;1&lt;/font&gt;" style="whiteSpace=wrap;html=1;aspect=fixed;fillColor=#000000;strokeColor=#FFFFFF;" parent="1" vertex="1">
          <mxGeometry x="448" y="320" width="80" height="80" as="geometry" />
        </mxCell>
        <mxCell id="iimfKb9M7Q10GFGvKBhN-7" value="&lt;font color=&quot;#ffffff&quot;&gt;B = 1&lt;br&gt;&lt;/font&gt;&lt;br&gt;&lt;font color=&quot;#1434a4&quot;&gt;2&lt;/font&gt;&amp;nbsp;&lt;font color=&quot;#ff0000&quot;&gt;0&lt;/font&gt;" style="whiteSpace=wrap;html=1;aspect=fixed;fillColor=#000000;strokeColor=#FFFFFF;" parent="1" vertex="1">
          <mxGeometry x="563" y="320" width="80" height="80" as="geometry" />
        </mxCell>
        <mxCell id="iimfKb9M7Q10GFGvKBhN-11" style="rounded=0;orthogonalLoop=1;jettySize=auto;html=1;exitX=0.5;exitY=1;exitDx=0;exitDy=0;entryX=0.479;entryY=-0.05;entryDx=0;entryDy=0;entryPerimeter=0;strokeColor=#FFFFFF;" parent="1" source="iimfKb9M7Q10GFGvKBhN-3" target="iimfKb9M7Q10GFGvKBhN-7" edge="1">
          <mxGeometry relative="1" as="geometry" />
        </mxCell>
        <mxCell id="iimfKb9M7Q10GFGvKBhN-14" value="&lt;font color=&quot;#ffffff&quot;&gt;Predict bad(0)&lt;/font&gt;" style="text;html=1;strokeColor=none;fillColor=none;align=center;verticalAlign=middle;whiteSpace=wrap;rounded=0;" parent="1" vertex="1">
          <mxGeometry x="208" y="400" width="80" height="30" as="geometry" />
        </mxCell>
        <mxCell id="iimfKb9M7Q10GFGvKBhN-15" value="&lt;font color=&quot;#ffffff&quot;&gt;Predict good(1)&lt;/font&gt;" style="text;html=1;strokeColor=none;fillColor=none;align=center;verticalAlign=middle;whiteSpace=wrap;rounded=0;" parent="1" vertex="1">
          <mxGeometry x="318" y="400" width="90" height="30" as="geometry" />
        </mxCell>
        <mxCell id="F7V6yQSn3hAlO5LJdmnb-1" value="&lt;font color=&quot;#ffffff&quot;&gt;Predict bad(0)&lt;/font&gt;" style="text;html=1;strokeColor=none;fillColor=none;align=center;verticalAlign=middle;whiteSpace=wrap;rounded=0;" vertex="1" parent="1">
          <mxGeometry x="563" y="400" width="80" height="30" as="geometry" />
        </mxCell>
        <mxCell id="F7V6yQSn3hAlO5LJdmnb-2" value="&lt;font color=&quot;#ffffff&quot;&gt;Predict good(1)&lt;/font&gt;" style="text;html=1;strokeColor=none;fillColor=none;align=center;verticalAlign=middle;whiteSpace=wrap;rounded=0;" vertex="1" parent="1">
          <mxGeometry x="443" y="400" width="90" height="30" as="geometry" />
        </mxCell>
      </root>
    </mxGraphModel>
  </diagram>
</mxfile>
